<?xml version="1.0" standalone="no"?>
<!DOCTYPE svg PUBLIC "-//W3C//DTD SVG 20010904//EN"
 "http://www.w3.org/TR/2001/REC-SVG-20010904/DTD/svg10.dtd">
<svg version="1.0" xmlns="http://www.w3.org/2000/svg"
 width="256.000000pt" height="256.000000pt" viewBox="0 0 256.000000 256.000000"
 preserveAspectRatio="xMidYMid meet">
<metadata>
Created by potrace 1.11, written by Peter Selinger 2001-2013
</metadata>
<g transform="translate(0.000000,256.000000) scale(0.100000,-0.100000)"
fill="#000000" stroke="none">
<path d="M80 1726 c0 -89 1 -94 23 -100 41 -11 154 -7 163 7 8 10 11 117 5
175 -1 9 -27 12 -96 12 l-95 0 0 -94z"/>
<path d="M409 1816 c-2 -2 -2 -184 1 -403 l5 -398 79 -3 c44 -2 83 1 88 6 5 5
10 140 12 301 2 160 6 294 9 298 4 3 7 -1 7 -10 0 -8 6 -28 14 -44 8 -15 22
-53 31 -83 9 -30 20 -64 25 -75 4 -11 20 -60 35 -110 15 -49 31 -99 36 -110 4
-11 16 -47 25 -80 26 -90 33 -95 124 -95 l77 0 16 43 c18 46 98 290 143 434
48 152 54 131 54 -175 0 -201 3 -273 13 -286 10 -14 26 -16 92 -14 l80 3 3
403 2 402 -150 0 c-127 0 -150 -2 -150 -15 0 -8 -4 -23 -9 -33 -6 -9 -21 -48
-34 -87 -47 -138 -69 -201 -99 -293 -17 -52 -36 -91 -42 -89 -11 4 -39 78
-117 312 -22 66 -47 139 -56 163 l-16 42 -147 0 c-81 0 -149 -2 -151 -4z"/>
<path d="M1500 1431 c0 -214 3 -396 6 -405 5 -13 22 -16 83 -16 42 0 81 4 88
8 9 6 13 78 14 277 2 247 7 324 21 299 3 -5 29 -83 58 -174 29 -91 63 -194 76
-230 13 -36 24 -71 24 -77 0 -6 9 -32 20 -57 l19 -46 75 0 c49 0 79 5 88 13 7
8 21 40 32 73 10 32 22 68 26 79 5 11 40 117 78 235 79 242 81 243 85 30 l2
-135 60 -3 c33 -2 75 0 93 3 l32 6 0 255 0 255 -151 -3 -151 -3 -15 -40 c-8
-22 -17 -49 -19 -60 -3 -11 -9 -29 -14 -40 -5 -11 -27 -76 -50 -145 -23 -69
-45 -134 -49 -145 -5 -11 -12 -33 -17 -50 -18 -59 -35 -34 -95 145 -32 96 -58
175 -59 175 0 0 -13 36 -28 80 l-27 80 -152 3 -153 3 0 -390z"/>
<path d="M80 1271 c0 -218 2 -250 16 -255 25 -10 162 -7 169 4 5 8 8 281 6
453 l-1 47 -95 0 -95 0 0 -249z"/>
<path d="M2292 1108 l3 -93 70 -3 c118 -5 116 -6 113 96 l-3 87 -93 3 -93 3 3
-93z"/>
<path d="M257 883 c-22 -6 -12 -23 13 -23 16 0 21 -10 26 -50 8 -59 20 -58 22
2 1 27 8 45 18 51 33 19 -26 34 -79 20z"/>
<path d="M374 877 c-3 -8 -4 -39 -2 -68 3 -48 6 -54 27 -57 15 -2 21 0 17 7
-4 6 -1 11 8 11 8 0 16 -6 19 -12 2 -7 8 -10 12 -6 12 12 -5 28 -31 28 -36 0
-30 26 9 36 l32 8 -32 3 c-47 6 -44 33 3 33 51 0 39 24 -14 28 -30 2 -44 -1
-48 -11z"/>
<path d="M497 883 c-11 -10 -8 -111 2 -118 5 -3 12 4 16 15 8 27 19 25 43 -5
13 -16 23 -22 27 -15 4 6 1 18 -6 26 -9 11 -9 18 -1 26 18 18 14 56 -7 68 -22
11 -64 13 -74 3z m61 -35 c-3 -7 -11 -13 -18 -13 -7 0 -15 6 -17 13 -3 7 4 12
17 12 13 0 20 -5 18 -12z"/>
<path d="M644 873 c-3 -10 -10 -26 -15 -35 -12 -23 -12 -78 0 -78 5 0 12 7 15
16 6 15 8 15 32 -1 33 -21 41 -13 26 28 -7 19 -12 43 -12 54 0 12 -7 24 -16
27 -22 9 -24 8 -30 -11z"/>
<path d="M766 869 c-32 -25 -37 -83 -8 -97 25 -14 75 -9 80 7 3 10 -3 12 -26
6 -25 -5 -33 -2 -42 15 -16 30 -4 60 25 60 13 0 25 -6 28 -12 3 -10 8 -10 17
-2 9 9 6 15 -11 28 -30 20 -31 20 -63 -5z"/>
<path d="M877 881 c-17 -6 -16 -8 7 -19 22 -10 26 -18 26 -51 0 -22 5 -43 10
-46 6 -4 10 11 10 38 0 27 6 49 15 57 8 7 12 16 9 21 -6 11 -51 11 -77 0z"/>
<path d="M986 883 c-8 -8 -8 -96 0 -117 12 -31 24 -4 24 54 0 55 -9 78 -24 63z"/>
<path d="M1157 883 c-7 -12 -8 -95 -2 -114 4 -12 16 -17 35 -17 19 1 27 5 23
14 -3 8 -9 14 -14 14 -21 0 -6 29 19 36 l27 7 -29 6 c-41 8 -46 31 -7 31 34 0
49 15 25 24 -22 8 -72 7 -77 -1z"/>
<path d="M1423 883 c-16 -6 -16 -34 -1 -84 13 -44 23 -49 32 -16 17 64 2 112
-31 100z"/>
<path d="M1700 880 c-12 -8 -12 -10 3 -16 12 -4 17 -18 17 -48 0 -48 14 -77
24 -51 3 9 6 34 6 55 0 25 5 40 16 44 8 3 12 10 9 16 -8 13 -55 13 -75 0z"/>
<path d="M1912 881 c-9 -5 -12 -26 -10 -67 3 -56 6 -57 24 -6 6 14 8 13 13 -8
6 -23 12 -25 65 -26 32 -1 63 -7 69 -13 16 -16 47 -14 47 3 0 8 -7 16 -15 20
-22 8 -19 26 4 26 33 0 32 17 -1 24 -39 8 -27 23 22 28 l35 3 3 -50 c2 -27 9
-53 15 -57 17 -11 70 1 84 19 10 13 15 13 27 4 12 -10 14 -9 9 8 -4 15 -1 21
11 21 26 0 18 18 -16 36 -18 9 -36 22 -40 27 -7 11 -147 19 -180 10 -10 -2
-18 -14 -19 -26 l0 -22 -9 21 c-4 12 -18 24 -29 27 -16 4 -25 -2 -36 -24 -16
-30 -35 -39 -35 -16 0 23 -24 47 -38 38z m342 -40 c9 -10 14 -25 10 -35 -7
-18 -47 -32 -63 -21 -12 7 -15 58 -4 68 12 13 40 7 57 -12z m-214 -17 c0 -8
-5 -12 -10 -9 -6 4 -8 11 -5 16 9 14 15 11 15 -7z"/>
<path d="M2383 883 c-7 -2 -15 -21 -19 -41 -3 -20 -13 -43 -22 -50 -27 -21 1
-37 31 -17 17 10 27 13 32 6 3 -6 13 -11 21 -11 18 0 18 40 0 85 -15 35 -20
38 -43 28z m27 -58 c0 -8 -4 -15 -10 -15 -5 0 -10 7 -10 15 0 8 5 15 10 15 6
0 10 -7 10 -15z"/>
<path d="M80 819 c0 -37 4 -58 10 -54 6 3 10 31 10 61 0 30 -4 54 -10 54 -6 0
-10 -27 -10 -61z"/>
<path d="M122 825 c3 -54 20 -76 26 -35 4 27 16 25 40 -5 35 -44 52 -28 44 38
-2 20 -8 37 -13 37 -5 0 -9 -4 -9 -10 0 -18 -29 -11 -40 10 -6 11 -20 20 -31
20 -18 0 -20 -6 -17 -55z"/>
<path d="M1030 868 c0 -26 12 -58 22 -58 14 0 5 63 -9 68 -7 2 -13 -2 -13 -10z"/>
<path d="M1110 859 c0 -12 -11 -30 -25 -41 -30 -23 -34 -58 -6 -58 20 0 31 18
31 50 0 10 4 20 9 22 4 2 12 13 15 26 6 16 3 22 -8 22 -10 0 -16 -9 -16 -21z"/>
<path d="M1327 833 c7 -71 11 -80 27 -58 12 16 13 16 19 1 10 -25 27 -19 27 9
0 14 -4 25 -9 25 -5 0 -12 16 -15 35 -6 28 -11 35 -30 35 -22 0 -23 -3 -19
-47z"/>
<path d="M1480 820 c0 -63 2 -65 55 -60 37 3 57 57 39 104 -11 30 -23 16 -26
-31 -3 -40 -6 -48 -23 -48 -17 0 -20 8 -23 48 -4 68 -22 58 -22 -13z"/>
<path d="M1602 818 c3 -61 4 -63 31 -63 16 -1 27 4 27 13 0 7 -4 11 -9 7 -15
-8 -31 29 -31 69 0 20 -5 36 -10 36 -7 0 -10 -24 -8 -62z"/>
<path d="M1798 828 c7 -77 22 -84 22 -10 0 45 -4 62 -14 62 -10 0 -12 -13 -8
-52z"/>
</g>
</svg>
